<svg width="503" height="140" viewBox="0 0 503 140" fill="none" xmlns="http://www.w3.org/2000/svg">
<g clip-path="url(#clip0_1198_13)">
<path d="M31.8516 129.686C37.1966 131.83 42.9939 133.102 49.0823 133.316C57.3206 133.602 65.1592 131.903 72.1631 128.676C63.7634 125.386 56.1563 120.575 49.661 114.593C45.4559 121.313 39.2306 126.617 31.8516 129.686Z" fill="#FF9100"/>
<path d="M49.6652 114.596C34.8439 100.932 25.8514 81.1532 26.6125 59.4585C26.6371 58.7557 26.6756 58.0495 26.7178 57.3467C24.0628 56.6614 21.2921 56.2454 18.4408 56.144C14.3585 56.0006 10.4058 56.5076 6.6742 57.5529C2.71811 64.4617 0.329721 72.3879 0.031611 80.8805C-0.736461 102.795 12.5663 121.941 31.8523 129.686C39.2313 126.619 45.4566 121.319 49.6652 114.596Z" fill="#FFC400"/>
<path d="M49.6674 114.595C53.115 109.099 55.2017 102.652 55.4472 95.7084C56.0855 77.4435 43.7684 61.731 26.72 57.3467C26.6779 58.0494 26.6393 58.7557 26.6147 59.4584C25.8572 81.1496 34.8461 100.928 49.6674 114.595Z" fill="#FF9100"/>
<path d="M53.5372 6C43.8294 13.7548 36.1593 23.9781 31.5227 35.7572C28.8679 42.5052 27.1984 49.7496 26.7109 57.347C43.7593 61.7315 56.0765 77.444 55.4347 95.7122C55.1927 102.656 53.0954 109.096 49.6548 114.599C56.1466 120.589 63.7572 125.392 72.1569 128.683C89.0194 120.914 100.982 104.194 101.673 84.4191C102.122 71.6051 97.1841 60.1861 90.2083 50.5467C82.8397 40.3549 53.5372 6 53.5372 6Z" fill="#DD2C00"/>
</g>
<path d="M170.5 38.086V48.595H143.437V65.242H164.176V75.565H143.437V103H130.417V38.086H170.5ZM186.335 45.34C184.041 45.34 182.119 44.627 180.569 43.201C179.081 41.713 178.337 39.884 178.337 37.714C178.337 35.544 179.081 33.746 180.569 32.32C182.119 30.832 184.041 30.088 186.335 30.088C188.629 30.088 190.52 30.832 192.008 32.32C193.558 33.746 194.333 35.544 194.333 37.714C194.333 39.884 193.558 41.713 192.008 43.201C190.52 44.627 188.629 45.34 186.335 45.34ZM192.752 51.478V103H179.732V51.478H192.752ZM218.636 59.476C220.31 56.748 222.48 54.609 225.146 53.059C227.874 51.509 230.974 50.734 234.446 50.734V64.405H231.005C226.913 64.405 223.813 65.366 221.705 67.288C219.659 69.21 218.636 72.558 218.636 77.332V103H205.616V51.478H218.636V59.476ZM291.111 76.123C291.111 77.983 290.987 79.657 290.739 81.145H253.074C253.384 84.865 254.686 87.779 256.98 89.887C259.274 91.995 262.095 93.049 265.443 93.049C270.279 93.049 273.72 90.972 275.766 86.818H289.809C288.321 91.778 285.469 95.87 281.253 99.094C277.037 102.256 271.86 103.837 265.722 103.837C260.762 103.837 256.298 102.752 252.33 100.582C248.424 98.35 245.355 95.219 243.123 91.189C240.953 87.159 239.868 82.509 239.868 77.239C239.868 71.907 240.953 67.226 243.123 63.196C245.293 59.166 248.331 56.066 252.237 53.896C256.143 51.726 260.638 50.641 265.722 50.641C270.62 50.641 274.991 51.695 278.835 53.803C282.741 55.911 285.748 58.918 287.856 62.824C290.026 66.668 291.111 71.101 291.111 76.123ZM277.626 72.403C277.564 69.055 276.355 66.389 273.999 64.405C271.643 62.359 268.76 61.336 265.35 61.336C262.126 61.336 259.398 62.328 257.166 64.312C254.996 66.234 253.663 68.931 253.167 72.403H277.626ZM337.442 69.706C341.1 70.388 344.107 72.217 346.463 75.193C348.819 78.169 349.997 81.579 349.997 85.423C349.997 88.895 349.129 91.964 347.393 94.63C345.719 97.234 343.27 99.28 340.046 100.768C336.822 102.256 333.009 103 328.607 103H300.614V38.086H327.398C331.8 38.086 335.582 38.799 338.744 40.225C341.968 41.651 344.386 43.635 345.998 46.177C347.672 48.719 348.509 51.602 348.509 54.826C348.509 58.608 347.486 61.77 345.44 64.312C343.456 66.854 340.79 68.652 337.442 69.706ZM313.634 64.87H325.538C328.638 64.87 331.025 64.188 332.699 62.824C334.373 61.398 335.21 59.383 335.21 56.779C335.21 54.175 334.373 52.16 332.699 50.734C331.025 49.308 328.638 48.595 325.538 48.595H313.634V64.87ZM326.747 92.398C329.909 92.398 332.358 91.654 334.094 90.166C335.892 88.678 336.791 86.57 336.791 83.842C336.791 81.052 335.861 78.882 334.001 77.332C332.141 75.72 329.63 74.914 326.468 74.914H313.634V92.398H326.747ZM373.394 34.18V103H360.374V34.18H373.394ZM409.136 103.837C404.176 103.837 399.712 102.752 395.744 100.582C391.776 98.35 388.645 95.219 386.351 91.189C384.119 87.159 383.003 82.509 383.003 77.239C383.003 71.969 384.15 67.319 386.444 63.289C388.8 59.259 391.993 56.159 396.023 53.989C400.053 51.757 404.548 50.641 409.508 50.641C414.468 50.641 418.963 51.757 422.993 53.989C427.023 56.159 430.185 59.259 432.479 63.289C434.835 67.319 436.013 71.969 436.013 77.239C436.013 82.509 434.804 87.159 432.386 91.189C430.03 95.219 426.806 98.35 422.714 100.582C418.684 102.752 414.158 103.837 409.136 103.837ZM409.136 92.491C411.492 92.491 413.693 91.933 415.739 90.817C417.847 89.639 419.521 87.903 420.761 85.609C422.001 83.315 422.621 80.525 422.621 77.239C422.621 72.341 421.319 68.59 418.715 65.986C416.173 63.32 413.042 61.987 409.322 61.987C405.602 61.987 402.471 63.32 399.929 65.986C397.449 68.59 396.209 72.341 396.209 77.239C396.209 82.137 397.418 85.919 399.836 88.585C402.316 91.189 405.416 92.491 409.136 92.491ZM465.744 50.641C469.588 50.641 472.967 51.416 475.881 52.966C478.795 54.454 481.089 56.407 482.763 58.825V51.478H495.876V103.372C495.876 108.146 494.915 112.393 492.993 116.113C491.071 119.895 488.188 122.871 484.344 125.041C480.5 127.273 475.85 128.389 470.394 128.389C463.078 128.389 457.064 126.684 452.352 123.274C447.702 119.864 445.067 115.214 444.447 109.324H457.374C458.056 111.68 459.513 113.54 461.745 114.904C464.039 116.33 466.798 117.043 470.022 117.043C473.804 117.043 476.873 115.896 479.229 113.602C481.585 111.37 482.763 107.96 482.763 103.372V95.374C481.089 97.792 478.764 99.807 475.788 101.419C472.874 103.031 469.526 103.837 465.744 103.837C461.404 103.837 457.436 102.721 453.84 100.489C450.244 98.257 447.392 95.126 445.284 91.096C443.238 87.004 442.215 82.323 442.215 77.053C442.215 71.845 443.238 67.226 445.284 63.196C447.392 59.166 450.213 56.066 453.747 53.896C457.343 51.726 461.342 50.641 465.744 50.641ZM482.763 77.239C482.763 74.077 482.143 71.38 480.903 69.148C479.663 66.854 477.989 65.118 475.881 63.94C473.773 62.7 471.51 62.08 469.092 62.08C466.674 62.08 464.442 62.669 462.396 63.847C460.35 65.025 458.676 66.761 457.374 69.055C456.134 71.287 455.514 73.953 455.514 77.053C455.514 80.153 456.134 82.881 457.374 85.237C458.676 87.531 460.35 89.298 462.396 90.538C464.504 91.778 466.736 92.398 469.092 92.398C471.51 92.398 473.773 91.809 475.881 90.631C477.989 89.391 479.663 87.655 480.903 85.423C482.143 83.129 482.763 80.401 482.763 77.239Z" fill="url(#paint0_linear_1198_13)"/>
<defs>
<linearGradient id="paint0_linear_1198_13" x1="306.5" y1="32" x2="313.5" y2="140" gradientUnits="userSpaceOnUse">
<stop stop-color="#DD2C00"/>
<stop offset="1" stop-color="#FF9100"/>
</linearGradient>
<clipPath id="clip0_1198_13">
<rect width="103" height="128" fill="white" transform="translate(0 6)"/>
</clipPath>
</defs>
</svg>
