<svg width="489" height="140" viewBox="0 0 489 140" fill="none" xmlns="http://www.w3.org/2000/svg">
<g clip-path="url(#clip0_1198_13)">
<path d="M31.8516 129.686C37.1966 131.83 42.9939 133.102 49.0823 133.316C57.3206 133.602 65.1592 131.903 72.1631 128.676C63.7634 125.386 56.1563 120.575 49.661 114.593C45.4559 121.313 39.2306 126.617 31.8516 129.686Z" fill="white"/>
<path d="M49.6652 114.596C34.8439 100.932 25.8514 81.1532 26.6125 59.4585C26.6371 58.7557 26.6756 58.0495 26.7178 57.3467C24.0628 56.6614 21.2921 56.2454 18.4408 56.144C14.3585 56.0006 10.4058 56.5076 6.6742 57.5529C2.71811 64.4617 0.329721 72.3879 0.031611 80.8805C-0.736461 102.795 12.5663 121.941 31.8523 129.686C39.2313 126.619 45.4566 121.319 49.6652 114.596Z" fill="#A0A0A0"/>
<path d="M49.6674 114.595C53.115 109.099 55.2017 102.652 55.4472 95.7084C56.0855 77.4435 43.7684 61.731 26.72 57.3467C26.6779 58.0494 26.6393 58.7557 26.6147 59.4584C25.8572 81.1496 34.8461 100.928 49.6674 114.595Z" fill="white"/>
<path d="M53.5372 6C43.8294 13.7548 36.1593 23.9781 31.5227 35.7572C28.8679 42.5052 27.1984 49.7496 26.7109 57.347C43.7593 61.7315 56.0765 77.444 55.4347 95.7122C55.1927 102.656 53.0954 109.096 49.6548 114.599C56.1466 120.589 63.7572 125.392 72.1569 128.683C89.0194 120.914 100.982 104.194 101.673 84.4191C102.122 71.6051 97.1841 60.1861 90.2083 50.5467C82.8397 40.3549 53.5372 6 53.5372 6Z" fill="white"/>
</g>
<path d="M167.803 38.179V45.061H139.624V66.916H162.502V73.798H139.624V103H131.161V38.179H167.803ZM182.395 43.759C180.783 43.759 179.419 43.201 178.303 42.085C177.187 40.969 176.629 39.605 176.629 37.993C176.629 36.381 177.187 35.017 178.303 33.901C179.419 32.785 180.783 32.227 182.395 32.227C183.945 32.227 185.247 32.785 186.301 33.901C187.417 35.017 187.975 36.381 187.975 37.993C187.975 39.605 187.417 40.969 186.301 42.085C185.247 43.201 183.945 43.759 182.395 43.759ZM186.487 52.036V103H178.024V52.036H186.487ZM209.374 60.313C210.862 57.399 212.97 55.136 215.698 53.524C218.488 51.912 221.867 51.106 225.835 51.106V59.848H223.603C214.117 59.848 209.374 64.994 209.374 75.286V103H200.911V52.036H209.374V60.313ZM282.104 75.565C282.104 77.177 282.011 78.882 281.825 80.68H241.091C241.401 85.702 243.106 89.639 246.206 92.491C249.368 95.281 253.181 96.676 257.645 96.676C261.303 96.676 264.341 95.839 266.759 94.165C269.239 92.429 270.975 90.135 271.967 87.283H281.081C279.717 92.181 276.989 96.18 272.897 99.28C268.805 102.318 263.721 103.837 257.645 103.837C252.809 103.837 248.469 102.752 244.625 100.582C240.843 98.412 237.867 95.343 235.697 91.375C233.527 87.345 232.442 82.695 232.442 77.425C232.442 72.155 233.496 67.536 235.604 63.568C237.712 59.6 240.657 56.562 244.439 54.454C248.283 52.284 252.685 51.199 257.645 51.199C262.481 51.199 266.759 52.253 270.479 54.361C274.199 56.469 277.051 59.383 279.035 63.103C281.081 66.761 282.104 70.915 282.104 75.565ZM273.362 73.798C273.362 70.574 272.649 67.815 271.223 65.521C269.797 63.165 267.844 61.398 265.364 60.22C262.946 58.98 260.249 58.36 257.273 58.36C252.995 58.36 249.337 59.724 246.299 62.452C243.323 65.18 241.618 68.962 241.184 73.798H273.362ZM325.732 69.613C328.088 69.985 330.227 70.946 332.149 72.496C334.133 74.046 335.683 75.968 336.799 78.262C337.977 80.556 338.566 83.005 338.566 85.609C338.566 88.895 337.729 91.871 336.055 94.537C334.381 97.141 331.932 99.218 328.708 100.768C325.546 102.256 321.795 103 317.455 103H293.275V38.179H316.525C320.927 38.179 324.678 38.923 327.778 40.411C330.878 41.837 333.203 43.79 334.753 46.27C336.303 48.75 337.078 51.54 337.078 54.64C337.078 58.484 336.024 61.677 333.916 64.219C331.87 66.699 329.142 68.497 325.732 69.613ZM301.738 66.172H315.967C319.935 66.172 323.004 65.242 325.174 63.382C327.344 61.522 328.429 58.949 328.429 55.663C328.429 52.377 327.344 49.804 325.174 47.944C323.004 46.084 319.873 45.154 315.781 45.154H301.738V66.172ZM316.711 96.025C320.927 96.025 324.213 95.033 326.569 93.049C328.925 91.065 330.103 88.306 330.103 84.772C330.103 81.176 328.863 78.355 326.383 76.309C323.903 74.201 320.586 73.147 316.432 73.147H301.738V96.025H316.711ZM358.773 34.18V103H350.31V34.18H358.773ZM395.424 103.837C390.65 103.837 386.31 102.752 382.404 100.582C378.56 98.412 375.522 95.343 373.29 91.375C371.12 87.345 370.035 82.695 370.035 77.425C370.035 72.217 371.151 67.629 373.383 63.661C375.677 59.631 378.777 56.562 382.683 54.454C386.589 52.284 390.96 51.199 395.796 51.199C400.632 51.199 405.003 52.284 408.909 54.454C412.815 56.562 415.884 59.6 418.116 63.568C420.41 67.536 421.557 72.155 421.557 77.425C421.557 82.695 420.379 87.345 418.023 91.375C415.729 95.343 412.598 98.412 408.63 100.582C404.662 102.752 400.26 103.837 395.424 103.837ZM395.424 96.397C398.462 96.397 401.314 95.684 403.98 94.258C406.646 92.832 408.785 90.693 410.397 87.841C412.071 84.989 412.908 81.517 412.908 77.425C412.908 73.333 412.102 69.861 410.49 67.009C408.878 64.157 406.77 62.049 404.166 60.685C401.562 59.259 398.741 58.546 395.703 58.546C392.603 58.546 389.751 59.259 387.147 60.685C384.605 62.049 382.559 64.157 381.009 67.009C379.459 69.861 378.684 73.333 378.684 77.425C378.684 81.579 379.428 85.082 380.916 87.934C382.466 90.786 384.512 92.925 387.054 94.351C389.596 95.715 392.386 96.397 395.424 96.397ZM453.702 51.199C458.104 51.199 461.948 52.16 465.234 54.082C468.582 56.004 471.062 58.422 472.674 61.336V52.036H481.23V104.116C481.23 108.766 480.238 112.889 478.254 116.485C476.27 120.143 473.418 122.995 469.698 125.041C466.04 127.087 461.762 128.11 456.864 128.11C450.168 128.11 444.588 126.529 440.124 123.367C435.66 120.205 433.025 115.896 432.219 110.44H440.589C441.519 113.54 443.441 116.02 446.355 117.88C449.269 119.802 452.772 120.763 456.864 120.763C461.514 120.763 465.296 119.306 468.21 116.392C471.186 113.478 472.674 109.386 472.674 104.116V93.421C471 96.397 468.52 98.877 465.234 100.861C461.948 102.845 458.104 103.837 453.702 103.837C449.176 103.837 445.053 102.721 441.333 100.489C437.675 98.257 434.792 95.126 432.684 91.096C430.576 87.066 429.522 82.478 429.522 77.332C429.522 72.124 430.576 67.567 432.684 63.661C434.792 59.693 437.675 56.624 441.333 54.454C445.053 52.284 449.176 51.199 453.702 51.199ZM472.674 77.425C472.674 73.581 471.899 70.233 470.349 67.381C468.799 64.529 466.691 62.359 464.025 60.871C461.421 59.321 458.538 58.546 455.376 58.546C452.214 58.546 449.331 59.29 446.727 60.778C444.123 62.266 442.046 64.436 440.496 67.288C438.946 70.14 438.171 73.488 438.171 77.332C438.171 81.238 438.946 84.648 440.496 87.562C442.046 90.414 444.123 92.615 446.727 94.165C449.331 95.653 452.214 96.397 455.376 96.397C458.538 96.397 461.421 95.653 464.025 94.165C466.691 92.615 468.799 90.414 470.349 87.562C471.899 84.648 472.674 81.269 472.674 77.425Z" fill="white"/>
<defs>
<clipPath id="clip0_1198_13">
<rect width="103" height="128" fill="white" transform="translate(0 6)"/>
</clipPath>
</defs>
</svg>
